<mxfile host="app.diagrams.net" modified="2024-03-06T21:36:59.605Z" agent="Mozilla/5.0 (Windows NT 10.0; Win64; x64) AppleWebKit/537.36 (KHTML, like Gecko) Chrome/122.0.0.0 Safari/537.36 Edg/122.0.0.0" etag="b6qYk2NTvh7pISMo8etT" version="24.0.2" type="device">
  <diagram name="Page-1" id="LdaqwtlnPSlIRnqyyUZU">
    <mxGraphModel dx="601" dy="332" grid="1" gridSize="10" guides="1" tooltips="1" connect="1" arrows="1" fold="1" page="1" pageScale="1" pageWidth="850" pageHeight="1100" math="0" shadow="0">
      <root>
        <mxCell id="0" />
        <mxCell id="1" parent="0" />
        <mxCell id="yUZ0TAd9Sk3VtKZrkHvA-1" value="" style="rounded=0;whiteSpace=wrap;html=1;" vertex="1" parent="1">
          <mxGeometry x="220" y="10" width="480" height="810" as="geometry" />
        </mxCell>
        <mxCell id="yUZ0TAd9Sk3VtKZrkHvA-2" value="Car Owner&lt;div&gt;2.3.1.1&lt;/div&gt;" style="shape=umlActor;verticalLabelPosition=bottom;verticalAlign=top;html=1;outlineConnect=0;fontStyle=0" vertex="1" parent="1">
          <mxGeometry x="140" y="30" width="50" height="90" as="geometry" />
        </mxCell>
        <mxCell id="yUZ0TAd9Sk3VtKZrkHvA-3" value="Shop Owner&lt;div&gt;2.3.1.2&lt;/div&gt;" style="shape=umlActor;verticalLabelPosition=bottom;verticalAlign=top;html=1;outlineConnect=0;movable=1;resizable=1;rotatable=1;deletable=1;editable=1;locked=0;connectable=1;" vertex="1" parent="1">
          <mxGeometry x="140" y="170" width="50" height="90" as="geometry" />
        </mxCell>
        <mxCell id="yUZ0TAd9Sk3VtKZrkHvA-4" value="Workshop Owner&lt;div&gt;2.3.1.3&lt;/div&gt;" style="shape=umlActor;verticalLabelPosition=bottom;verticalAlign=top;html=1;outlineConnect=0;" vertex="1" parent="1">
          <mxGeometry x="120" y="300" width="50" height="90" as="geometry" />
        </mxCell>
        <mxCell id="yUZ0TAd9Sk3VtKZrkHvA-5" value="Scrapyard Owner&lt;div&gt;2.3.1.4&lt;/div&gt;" style="shape=umlActor;verticalLabelPosition=bottom;verticalAlign=top;html=1;outlineConnect=0;" vertex="1" parent="1">
          <mxGeometry x="120" y="430" width="50" height="100" as="geometry" />
        </mxCell>
        <mxCell id="yUZ0TAd9Sk3VtKZrkHvA-6" value="" style="ellipse;whiteSpace=wrap;html=1;" vertex="1" parent="1">
          <mxGeometry x="250" y="80" width="120" height="80" as="geometry" />
        </mxCell>
        <mxCell id="yUZ0TAd9Sk3VtKZrkHvA-7" value="" style="rounded=0;whiteSpace=wrap;html=1;" vertex="1" parent="1">
          <mxGeometry x="220" y="10" width="120" height="30" as="geometry" />
        </mxCell>
        <mxCell id="yUZ0TAd9Sk3VtKZrkHvA-8" value="" style="ellipse;whiteSpace=wrap;html=1;" vertex="1" parent="1">
          <mxGeometry x="250" y="180" width="120" height="80" as="geometry" />
        </mxCell>
        <mxCell id="yUZ0TAd9Sk3VtKZrkHvA-9" value="" style="ellipse;whiteSpace=wrap;html=1;" vertex="1" parent="1">
          <mxGeometry x="570" y="40" width="120" height="80" as="geometry" />
        </mxCell>
        <mxCell id="yUZ0TAd9Sk3VtKZrkHvA-10" value="" style="ellipse;whiteSpace=wrap;html=1;" vertex="1" parent="1">
          <mxGeometry x="570" y="140" width="120" height="80" as="geometry" />
        </mxCell>
        <mxCell id="yUZ0TAd9Sk3VtKZrkHvA-11" value="" style="ellipse;whiteSpace=wrap;html=1;" vertex="1" parent="1">
          <mxGeometry x="250" y="290" width="120" height="80" as="geometry" />
        </mxCell>
        <mxCell id="yUZ0TAd9Sk3VtKZrkHvA-12" value="" style="ellipse;whiteSpace=wrap;html=1;" vertex="1" parent="1">
          <mxGeometry x="570" y="250" width="120" height="80" as="geometry" />
        </mxCell>
        <mxCell id="yUZ0TAd9Sk3VtKZrkHvA-13" value="" style="ellipse;whiteSpace=wrap;html=1;" vertex="1" parent="1">
          <mxGeometry x="405" y="30" width="120" height="80" as="geometry" />
        </mxCell>
        <mxCell id="yUZ0TAd9Sk3VtKZrkHvA-14" value="" style="ellipse;whiteSpace=wrap;html=1;" vertex="1" parent="1">
          <mxGeometry x="405" y="120" width="120" height="80" as="geometry" />
        </mxCell>
        <mxCell id="yUZ0TAd9Sk3VtKZrkHvA-15" value="" style="ellipse;whiteSpace=wrap;html=1;" vertex="1" parent="1">
          <mxGeometry x="405" y="220" width="120" height="80" as="geometry" />
        </mxCell>
        <mxCell id="yUZ0TAd9Sk3VtKZrkHvA-16" value="" style="ellipse;whiteSpace=wrap;html=1;" vertex="1" parent="1">
          <mxGeometry x="405" y="320" width="120" height="80" as="geometry" />
        </mxCell>
        <mxCell id="yUZ0TAd9Sk3VtKZrkHvA-17" value="" style="ellipse;whiteSpace=wrap;html=1;" vertex="1" parent="1">
          <mxGeometry x="565" y="355" width="120" height="80" as="geometry" />
        </mxCell>
        <mxCell id="yUZ0TAd9Sk3VtKZrkHvA-18" value="" style="ellipse;whiteSpace=wrap;html=1;" vertex="1" parent="1">
          <mxGeometry x="565" y="455" width="120" height="80" as="geometry" />
        </mxCell>
        <mxCell id="yUZ0TAd9Sk3VtKZrkHvA-19" value="" style="ellipse;whiteSpace=wrap;html=1;" vertex="1" parent="1">
          <mxGeometry x="250" y="410" width="120" height="80" as="geometry" />
        </mxCell>
        <mxCell id="yUZ0TAd9Sk3VtKZrkHvA-20" value="" style="ellipse;whiteSpace=wrap;html=1;" vertex="1" parent="1">
          <mxGeometry x="405" y="520" width="120" height="80" as="geometry" />
        </mxCell>
        <mxCell id="yUZ0TAd9Sk3VtKZrkHvA-21" value="" style="ellipse;whiteSpace=wrap;html=1;" vertex="1" parent="1">
          <mxGeometry x="400" y="425" width="120" height="80" as="geometry" />
        </mxCell>
        <mxCell id="yUZ0TAd9Sk3VtKZrkHvA-22" value="Mechanics&amp;nbsp;&lt;div&gt;2.3.2.1&lt;/div&gt;" style="shape=umlActor;verticalLabelPosition=bottom;verticalAlign=top;html=1;outlineConnect=0;" vertex="1" parent="1">
          <mxGeometry x="120" y="570" width="50" height="100" as="geometry" />
        </mxCell>
        <mxCell id="yUZ0TAd9Sk3VtKZrkHvA-23" value="&lt;div&gt;Car Dealership&lt;/div&gt;2.3.3.2" style="shape=umlActor;verticalLabelPosition=bottom;verticalAlign=top;html=1;outlineConnect=0;" vertex="1" parent="1">
          <mxGeometry x="750" y="450" width="45" height="80" as="geometry" />
        </mxCell>
        <mxCell id="yUZ0TAd9Sk3VtKZrkHvA-24" value="Auto Parts Shop&lt;div&gt;2.3.3.1&lt;/div&gt;" style="shape=umlActor;verticalLabelPosition=bottom;verticalAlign=top;html=1;outlineConnect=0;" vertex="1" parent="1">
          <mxGeometry x="742.5" y="310" width="60" height="90" as="geometry" />
        </mxCell>
        <mxCell id="yUZ0TAd9Sk3VtKZrkHvA-25" value="Scrapyard Mechanic&lt;div&gt;2.3.2.3&lt;/div&gt;" style="shape=umlActor;verticalLabelPosition=bottom;verticalAlign=top;html=1;outlineConnect=0;" vertex="1" parent="1">
          <mxGeometry x="750" y="170" width="50" height="80" as="geometry" />
        </mxCell>
        <mxCell id="yUZ0TAd9Sk3VtKZrkHvA-26" value="Workshop Mechanics&lt;div&gt;2.3.2.2&lt;/div&gt;" style="shape=umlActor;verticalLabelPosition=bottom;verticalAlign=top;html=1;outlineConnect=0;" vertex="1" parent="1">
          <mxGeometry x="750" y="30" width="50" height="90" as="geometry" />
        </mxCell>
        <mxCell id="yUZ0TAd9Sk3VtKZrkHvA-27" value="Car Agencies&lt;div&gt;2.3.3.3&lt;/div&gt;" style="shape=umlActor;verticalLabelPosition=bottom;verticalAlign=top;html=1;outlineConnect=0;" vertex="1" parent="1">
          <mxGeometry x="742.5" y="590" width="55" height="100" as="geometry" />
        </mxCell>
        <mxCell id="yUZ0TAd9Sk3VtKZrkHvA-28" value="Shop Station" style="text;html=1;align=center;verticalAlign=middle;whiteSpace=wrap;rounded=0;" vertex="1" parent="1">
          <mxGeometry x="240" y="10" width="80" height="30" as="geometry" />
        </mxCell>
        <mxCell id="yUZ0TAd9Sk3VtKZrkHvA-29" value=" Add Car Make, Model and Location of Shipping (FR #35)" style="text;html=1;align=center;verticalAlign=middle;whiteSpace=wrap;rounded=0;" vertex="1" parent="1">
          <mxGeometry x="575" y="272.5" width="110" height="35" as="geometry" />
        </mxCell>
        <mxCell id="yUZ0TAd9Sk3VtKZrkHvA-30" value="Manage Storage and Capital of Products Stored (FR #34)&lt;div&gt;&lt;br/&gt;&lt;/div&gt;" style="text;html=1;align=center;verticalAlign=middle;whiteSpace=wrap;rounded=0;" vertex="1" parent="1">
          <mxGeometry x="580" y="165" width="100" height="25" as="geometry" />
        </mxCell>
        <mxCell id="yUZ0TAd9Sk3VtKZrkHvA-31" value="Respond to Customer Inquiries (FR #33)&lt;div&gt;&lt;br/&gt;&lt;/div&gt;" style="text;html=1;align=center;verticalAlign=middle;whiteSpace=wrap;rounded=0;" vertex="1" parent="1">
          <mxGeometry x="585" y="70" width="90" height="30" as="geometry" />
        </mxCell>
        <mxCell id="yUZ0TAd9Sk3VtKZrkHvA-32" value="Manage Shelf Location for Auto Parts (FR #32)" style="text;html=1;align=center;verticalAlign=middle;whiteSpace=wrap;rounded=0;" vertex="1" parent="1">
          <mxGeometry x="420" y="545" width="90" height="30" as="geometry" />
        </mxCell>
        <mxCell id="yUZ0TAd9Sk3VtKZrkHvA-33" value="Apply Discount to Purchase (FR #31)&lt;div&gt;&lt;br/&gt;&lt;/div&gt;" style="text;html=1;align=center;verticalAlign=middle;whiteSpace=wrap;rounded=0;" vertex="1" parent="1">
          <mxGeometry x="570" y="480" width="110" height="30" as="geometry" />
        </mxCell>
        <mxCell id="yUZ0TAd9Sk3VtKZrkHvA-34" value="Track Employee Productivity (FR #30)" style="text;html=1;align=center;verticalAlign=middle;whiteSpace=wrap;rounded=0;" vertex="1" parent="1">
          <mxGeometry x="575" y="380" width="100" height="30" as="geometry" />
        </mxCell>
        <mxCell id="yUZ0TAd9Sk3VtKZrkHvA-35" value="&lt;div&gt;Manage Shop Promotions (FR #29)&lt;br/&gt;&lt;/div&gt;" style="text;html=1;align=center;verticalAlign=middle;whiteSpace=wrap;rounded=0;" vertex="1" parent="1">
          <mxGeometry x="405" y="340" width="120" height="40" as="geometry" />
        </mxCell>
        <mxCell id="yUZ0TAd9Sk3VtKZrkHvA-36" value="Track Order Fulfillment (FR #28)&lt;div&gt;&lt;br/&gt;&lt;/div&gt;" style="text;html=1;align=center;verticalAlign=middle;whiteSpace=wrap;rounded=0;" vertex="1" parent="1">
          <mxGeometry x="410" y="245" width="110" height="30" as="geometry" />
        </mxCell>
        <mxCell id="yUZ0TAd9Sk3VtKZrkHvA-37" value=" Manage Customer Inquiries (FR #27)" style="text;html=1;align=center;verticalAlign=middle;whiteSpace=wrap;rounded=0;" vertex="1" parent="1">
          <mxGeometry x="410" y="145" width="110" height="30" as="geometry" />
        </mxCell>
        <mxCell id="yUZ0TAd9Sk3VtKZrkHvA-38" value="Upload Product/Car Pictures (FR #26)" style="text;html=1;align=center;verticalAlign=middle;whiteSpace=wrap;rounded=0;" vertex="1" parent="1">
          <mxGeometry x="407.5" y="55" width="110" height="30" as="geometry" />
        </mxCell>
        <mxCell id="yUZ0TAd9Sk3VtKZrkHvA-39" value=" Add Shop Details (FR #21)&lt;div&gt;&lt;br/&gt;&lt;/div&gt;" style="text;html=1;align=center;verticalAlign=middle;whiteSpace=wrap;rounded=0;" vertex="1" parent="1">
          <mxGeometry x="255" y="110" width="110" height="30" as="geometry" />
        </mxCell>
        <mxCell id="yUZ0TAd9Sk3VtKZrkHvA-40" value=" Add Product/Car (FR #22)" style="text;html=1;align=center;verticalAlign=middle;whiteSpace=wrap;rounded=0;" vertex="1" parent="1">
          <mxGeometry x="252.5" y="205" width="115" height="30" as="geometry" />
        </mxCell>
        <mxCell id="yUZ0TAd9Sk3VtKZrkHvA-41" value="Add Categories of Products (FR #23)&lt;div&gt;&lt;br/&gt;&lt;/div&gt;" style="text;html=1;align=center;verticalAlign=middle;whiteSpace=wrap;rounded=0;" vertex="1" parent="1">
          <mxGeometry x="245" y="305" width="125" height="50" as="geometry" />
        </mxCell>
        <mxCell id="yUZ0TAd9Sk3VtKZrkHvA-42" value=" Import Past Sale Data via Spreadsheet (FR #24)" style="text;html=1;align=center;verticalAlign=middle;whiteSpace=wrap;rounded=0;" vertex="1" parent="1">
          <mxGeometry x="405" y="450" width="110" height="30" as="geometry" />
        </mxCell>
        <mxCell id="yUZ0TAd9Sk3VtKZrkHvA-43" value="Export Sales and Storage Reports (FR #25)" style="text;html=1;align=center;verticalAlign=middle;whiteSpace=wrap;rounded=0;" vertex="1" parent="1">
          <mxGeometry x="255" y="435" width="110" height="30" as="geometry" />
        </mxCell>
        <mxCell id="yUZ0TAd9Sk3VtKZrkHvA-44" value="&amp;nbsp;Add Pictures of Equipment (FR #36)&amp;nbsp;" style="ellipse;whiteSpace=wrap;html=1;" vertex="1" parent="1">
          <mxGeometry x="565" y="540" width="120" height="80" as="geometry" />
        </mxCell>
        <mxCell id="yUZ0TAd9Sk3VtKZrkHvA-45" value="&lt;div&gt;&lt;br&gt;&lt;/div&gt;&lt;br&gt;Order Parts (FR #41)&lt;br&gt;&lt;div&gt;&lt;br/&gt;&lt;/div&gt;" style="ellipse;whiteSpace=wrap;html=1;" vertex="1" parent="1">
          <mxGeometry x="240" y="510" width="120" height="80" as="geometry" />
        </mxCell>
        <mxCell id="yUZ0TAd9Sk3VtKZrkHvA-46" value="&lt;div&gt;&lt;br&gt;&lt;/div&gt;&lt;br&gt;Technician Marks the End of Repair (FR #42)&lt;div&gt;&lt;br/&gt;&lt;/div&gt;" style="ellipse;whiteSpace=wrap;html=1;" vertex="1" parent="1">
          <mxGeometry x="245" y="600" width="120" height="80" as="geometry" />
        </mxCell>
        <mxCell id="yUZ0TAd9Sk3VtKZrkHvA-47" value="&lt;div&gt;&lt;br&gt;&lt;/div&gt;&lt;br&gt; Technician Marks the Start of Diagnoses and Repair (FR #40)&lt;br&gt;&lt;div&gt;&lt;br/&gt;&lt;/div&gt;" style="ellipse;whiteSpace=wrap;html=1;" vertex="1" parent="1">
          <mxGeometry x="400" y="610" width="120" height="80" as="geometry" />
        </mxCell>
        <mxCell id="yUZ0TAd9Sk3VtKZrkHvA-48" value="&#xa;Add Employees and Technicians by Name (FR #37)&#xa;&#xa;" style="ellipse;whiteSpace=wrap;html=1;" vertex="1" parent="1">
          <mxGeometry x="555" y="630" width="120" height="80" as="geometry" />
        </mxCell>
        <mxCell id="yUZ0TAd9Sk3VtKZrkHvA-49" value="&lt;div&gt;&lt;br&gt;&lt;/div&gt;&lt;br&gt;View Repair Statistics (FR #43)&lt;div&gt;&lt;br/&gt;&lt;/div&gt;" style="ellipse;whiteSpace=wrap;html=1;" vertex="1" parent="1">
          <mxGeometry x="250" y="690" width="120" height="80" as="geometry" />
        </mxCell>
        <mxCell id="yUZ0TAd9Sk3VtKZrkHvA-50" value="&lt;div&gt;&lt;br&gt;&lt;/div&gt;&lt;br&gt; Record Arrival of Cars for Repairs (FR #39)&lt;br&gt;&lt;div&gt;&lt;br/&gt;&lt;/div&gt;" style="ellipse;whiteSpace=wrap;html=1;" vertex="1" parent="1">
          <mxGeometry x="407.5" y="710" width="120" height="80" as="geometry" />
        </mxCell>
        <mxCell id="yUZ0TAd9Sk3VtKZrkHvA-51" value="&#xa;Control Employees/Technicians Access (FR #38)&#xa;&#xa;&#xa;" style="ellipse;whiteSpace=wrap;html=1;" vertex="1" parent="1">
          <mxGeometry x="560" y="720" width="120" height="80" as="geometry" />
        </mxCell>
      </root>
    </mxGraphModel>
  </diagram>
</mxfile>
